<svg xmlns="http://www.w3.org/2000/svg" fill="none" viewBox="0 0 512 512">
  <rect width="512" height="512" fill="#155DFC" rx="50"/>
  <path fill="#fff" d="M285.691 195.913c0-4.024.798-7.862 2.229-11.375H35.761v21.461h44.644v120.245h23.919V205.999h183.105a30.079 30.079 0 0 1-1.738-10.086Z"/>
  <path fill="#fff" d="M131.134 326.244V224.915h22.938v21.957c1.633-5.027 3.968-9.325 7.01-12.885 3.044-3.567 6.621-6.292 10.733-8.187 4.114-1.895 8.588-2.848 13.421-2.848 1.175 0 2.323.068 3.432.196s1.934.367 2.452.68v22.832c-.719-.329-1.643-.547-2.792-.692-1.147-.128-2.14-.195-2.986-.195-4.894-.39-9.23-.195-12.991.585-3.761.786-6.933 2.101-9.502 3.968-2.585 1.866-4.53 4.219-5.834 7.049-1.305 2.848-1.956 6.165-1.956 9.949v58.898h-23.918v.011l-.007.011ZM230.714 328.218c-6.464 0-12.27-1.188-17.403-3.579-5.133-2.39-9.151-5.807-12.049-10.287-2.909-4.475-4.358-9.908-4.358-16.317 0-11.174 4.036-19.595 12.099-25.285 8.069-5.678 20.927-8.653 38.564-8.915l15.197-.391v-6.865c0-5.349-1.577-9.558-4.754-12.6-3.171-3.043-8.081-4.492-14.751-4.358-4.96 0-9.48 1.12-13.525 3.382-4.047 2.258-6.738 6.03-8.042 11.319h-20.285c.391-6.921 2.402-12.728 6.03-17.404 3.628-4.675 8.605-8.17 14.946-10.482 6.331-2.324 13.654-3.484 21.958-3.484 9.674 0 17.543 1.282 23.617 3.824 6.069 2.546 10.549 6.224 13.42 11.028 2.869 4.804 4.306 10.6 4.306 17.403v71.055h-20.089l-1.956-18.224c-3.655 7.651-8.265 12.924-13.827 15.822-5.55 2.909-11.92 4.358-19.109 4.358h.011Zm7.741-16.178c2.938 0 5.845-.536 8.723-1.622 2.869-1.081 5.471-2.546 7.795-4.414 2.325-1.866 4.18-3.928 5.59-6.224 1.41-2.285 2.139-4.676 2.206-7.157v-15.977l-12.438.196c-6.146.066-11.513.73-16.122 2.012-4.608 1.281-8.186 3.248-10.733 5.929-2.548 2.675-3.824 6.265-3.824 10.783 0 5.156 1.801 9.189 5.39 12.105 3.588 2.909 8.07 4.358 13.435 4.358l-.011.011h-.011ZM304.108 325.982v-101.34h22.832v101.34h-22.832ZM374.444 327.46c-6.544 0-11.765-.825-15.677-2.452-3.919-1.632-6.866-3.822-8.827-6.564-1.956-2.743-3.249-5.835-3.878-9.257a58.672 58.672 0 0 1-.926-10.533V184.546h23.417v111.356c0 4.375.902 7.779 2.691 10.193 1.8 2.413 4.725 3.822 8.772 4.218l5.093.194v15.003a71.61 71.61 0 0 1-5.388 1.371c-1.828.389-3.59.585-5.289.585h.012v-.006ZM434.04 327.939c-7.062 0-13.732-1.12-20.042-3.382-6.302-2.258-11.589-5.796-15.875-10.639-4.281-4.831-6.972-11.073-8.081-18.719h20.975c.915 3.723 2.531 6.76 4.86 9.111a20.743 20.743 0 0 0 8.237 5.144 30.243 30.243 0 0 0 9.842 1.623c6.069 0 10.977-1.043 14.7-3.132 3.723-2.091 5.59-5.328 5.59-9.697 0-3.199-1.032-5.746-3.082-7.652-2.062-1.895-5.406-3.326-10.053-4.307l-19.204-4.414c-8.627-1.895-15.521-5.027-20.681-9.413-5.154-4.374-7.779-10.55-7.846-18.525-.066-6.007 1.437-11.368 4.502-16.071 3.071-4.698 7.652-8.41 13.721-11.123 6.068-2.713 13.554-4.074 22.442-4.074 11.825 0 21.316 2.636 28.471 7.886 7.155 5.26 10.834 12.755 11.035 22.492h-20.285c-.719-4.376-2.781-7.792-6.176-10.249-3.394-2.451-7.806-3.684-13.235-3.684-5.428 0-10.221 1.082-13.827 3.238-3.587 2.157-5.388 5.456-5.388 9.897 0 3.065 1.359 5.485 4.074 7.256 2.714 1.762 6.837 3.266 12.399 4.503l18.223 4.414c5.222 1.305 9.503 3.065 12.835 5.289 3.327 2.217 5.929 4.658 7.791 7.294 1.866 2.653 3.17 5.35 3.916 8.131.742 2.78 1.122 5.338 1.122 7.69 0 6.542-1.683 12.105-5.056 16.707-3.365 4.61-8.108 8.148-14.215 10.639-6.109 2.48-13.342 3.722-21.712 3.722l.012.04.011.005ZM315.795 209.276c7.384 0 13.369-5.985 13.369-13.368 0-7.384-5.985-13.369-13.369-13.369-7.383 0-13.37 5.985-13.37 13.369 0 7.383 5.987 13.368 13.37 13.368Z"/>
</svg>
