<svg xmlns="http://www.w3.org/2000/svg" fill="none" role="img" width="130" height="36" class="text-black" aria-label="AnyPay"><path fill="currentColor" fill-rule="evenodd" d="M19 8a2 2 0 0 1 2 2v4h4a2 2 0 0 1 2 2v10a2 2 0 0 1-2 2H13a2 2 0 0 1-2-2v-4H7a2 2 0 0 1-2-2V10a2 2 0 0 1 2-2zm-6 6a2 2 0 0 0-2 2v4a2 2 0 0 0 2 2h8v-6a2 2 0 0 0-2-2z" clip-rule="evenodd"></path><path fill="currentColor" d="M109.85 10.96h4.192l2.648 7.894q.13.386.206.772.103.386.154.797.078.412.103.874h.077q.078-.669.206-1.26.154-.617.334-1.183l2.598-7.894h4.114l-5.94 15.84q-.54 1.44-1.414 2.417a5.5 5.5 0 0 1-1.98 1.466 6.2 6.2 0 0 1-2.469.488 7.3 7.3 0 0 1-1.131-.077 8 8 0 0 1-.823-.128V27.93q.282.052.668.103.412.052.849.052.797 0 1.363-.335.591-.333.977-.925.386-.566.617-1.235l.231-.694zm-7.753-.283q2.829 0 4.32 1.234 1.518 1.209 1.517 3.729V25h-2.674l-.746-1.903h-.103a7 7 0 0 1-1.234 1.234 3.75 3.75 0 0 1-1.44.695q-.797.231-1.98.231-1.234 0-2.237-.463a3.63 3.63 0 0 1-1.543-1.465q-.566-1.003-.566-2.52 0-2.238 1.569-3.292 1.569-1.08 4.706-1.183l2.443-.077v-.617q0-1.105-.592-1.62-.565-.514-1.594-.514c-1.029 0-1.354.103-2.006.308q-.977.284-1.954.72l-1.26-2.597a11 11 0 0 1 2.494-.926 12.3 12.3 0 0 1 2.88-.334m.54 7.869q-1.851.051-2.571.668-.72.618-.72 1.62 0 .874.514 1.26.515.36 1.337.36 1.234 0 2.083-.72.849-.745.849-2.083v-1.157zm-14.755-7.843q2.365 0 3.831 1.851 1.466 1.825 1.466 5.4 0 2.392-.694 4.037-.694 1.62-1.903 2.443t-2.803.823q-1.002 0-1.748-.257a4.2 4.2 0 0 1-1.235-.669 6.2 6.2 0 0 1-.9-.874h-.205a10.4 10.4 0 0 1 .206 2.057v5.657h-3.832V10.96h3.111l.54 1.826h.18q.386-.566.926-1.029.54-.489 1.286-.771.77-.283 1.774-.283m-1.234 3.06q-1.003 0-1.595.411-.59.413-.874 1.26-.257.823-.283 2.083v.412q0 1.363.257 2.314.257.925.875 1.414.617.489 1.671.489.874 0 1.44-.489t.849-1.44q.282-.951.283-2.314 0-2.058-.643-3.086-.618-1.054-1.98-1.054M63.42 10.96h4.19l2.65 7.894q.127.386.205.772.102.386.154.797.078.412.103.874h.077q.077-.669.206-1.26.154-.617.334-1.183l2.597-7.894h4.114L72.11 26.8q-.539 1.44-1.414 2.417a5.5 5.5 0 0 1-1.98 1.466 6.2 6.2 0 0 1-2.468.488q-.643 0-1.132-.077a8 8 0 0 1-.823-.128V27.93q.284.052.669.103.411.052.849.052.796 0 1.362-.335a2.8 2.8 0 0 0 .977-.925q.386-.566.618-1.235l.231-.694-5.58-13.937Zm-6.924-.257q2.263 0 3.626 1.234 1.362 1.209 1.363 3.909V25h-3.832v-8.203q0-1.517-.54-2.263-.54-.771-1.723-.771-1.748 0-2.391 1.208-.643 1.183-.643 3.42V25h-3.831V10.96h2.931l.514 1.8h.206a3.8 3.8 0 0 1 1.131-1.157 4.5 4.5 0 0 1 1.492-.669 6.2 6.2 0 0 1 1.697-.231m-17.73-.026q2.827 0 4.32 1.234 1.517 1.209 1.517 3.729V25h-2.674l-.746-1.903h-.103a7 7 0 0 1-1.234 1.234 3.75 3.75 0 0 1-1.44.695q-.798.231-1.98.231-1.235 0-2.237-.463a3.63 3.63 0 0 1-1.543-1.465q-.566-1.003-.566-2.52 0-2.238 1.569-3.292 1.568-1.08 4.705-1.183l2.443-.077v-.617q0-1.105-.591-1.62-.566-.514-1.595-.514a6.6 6.6 0 0 0-2.005.308 15 15 0 0 0-1.955.72l-1.26-2.597a11 11 0 0 1 2.495-.926 12.3 12.3 0 0 1 2.88-.334m.54 7.869q-1.852.051-2.572.668-.72.618-.72 1.62 0 .874.515 1.26.513.36 1.337.36 1.234 0 2.083-.72.848-.745.848-2.083v-1.157z"></path></svg>