<svg width="188" height="63" viewBox="0 0 188 63" fill="none" xmlns="http://www.w3.org/2000/svg">
<path d="M107.043 6.19912C107.043 4.48682 107.379 2.85547 107.989 1.3611H0.731018V10.4892H19.722V61.634H29.8961V10.4892H107.778C107.298 9.14428 107.037 7.70594 107.037 6.19912H107.043Z" fill="white"/>
<path d="M41.3031 61.6402V18.5401H51.0601V27.8799C51.7575 25.7442 52.7475 23.9136 54.0426 22.4006C55.3378 20.8875 56.857 19.7232 58.6067 18.9199C60.3563 18.1167 62.2617 17.712 64.3164 17.712C64.8146 17.712 65.3064 17.7369 65.7797 17.7929C66.2529 17.849 66.6016 17.9486 66.8257 18.0794V27.7928C66.5206 27.6558 66.1284 27.5624 65.6365 27.5001C65.1508 27.4441 64.7274 27.4192 64.3662 27.4192C62.2866 27.2511 60.4373 27.3382 58.8433 27.6682C57.2431 28.0045 55.8919 28.5648 54.8023 29.3556C53.7002 30.1526 52.8783 31.1489 52.3179 32.3568C51.7637 33.5648 51.4835 34.9782 51.4835 36.5909V61.6465H41.3094L41.3031 61.6402Z" fill="white"/>
<path d="M83.6623 62.4808C80.9164 62.4808 78.4445 61.9765 76.2589 60.9615C74.0734 59.9466 72.3673 58.4896 71.1345 56.5843C69.8954 54.679 69.279 52.3689 69.279 49.6417C69.279 44.8908 70.9975 41.3043 74.4283 38.8885C77.8592 36.4726 83.3323 35.2086 90.829 35.0965L97.2922 34.9284V32.0081C97.2922 29.7292 96.6197 27.9422 95.2685 26.6471C93.9174 25.3519 91.8315 24.7355 88.9922 24.7916C86.8814 24.7916 84.9636 25.271 83.2389 26.2299C81.5203 27.1888 80.3747 28.7952 79.8205 31.043H71.1905C71.3586 28.0979 72.2117 25.6259 73.7559 23.6397C75.3 21.6534 77.4171 20.1652 80.1132 19.1815C82.8093 18.1914 85.9225 17.6995 89.453 17.6995C93.5687 17.6995 96.9186 18.2413 99.4964 19.3247C102.08 20.4081 103.986 21.9709 105.206 24.0195C106.427 26.0618 107.037 28.5275 107.037 31.4228V61.6465H98.4939L97.6595 53.8944C96.1029 57.1509 94.1416 59.3924 91.7817 60.6253C89.4218 61.8644 86.7133 62.4808 83.6498 62.4808H83.6623ZM86.9561 55.6005C88.2077 55.6005 89.4468 55.3701 90.6672 54.9093C91.8876 54.4486 92.9958 53.8259 93.9796 53.0351C94.9697 52.2382 95.7542 51.3664 96.3582 50.3889C96.9559 49.4175 97.2673 48.4026 97.2984 47.3441V40.5447L92.0058 40.6257C89.3907 40.6506 87.1055 40.937 85.1504 41.4787C83.1891 42.0204 81.6698 42.861 80.5864 44.0004C79.503 45.1399 78.9612 46.6654 78.9612 48.5894C78.9612 50.7812 79.7271 52.4997 81.2526 53.7388C82.7781 54.9778 84.6834 55.5943 86.9686 55.5943L86.9561 55.6005Z" fill="white"/>
<path d="M114.876 61.5282V18.4218H124.589V61.5282H114.876Z" fill="white"/>
<path d="M144.794 62.157C142.011 62.157 139.788 61.8083 138.126 61.111C136.457 60.4136 135.206 59.4859 134.371 58.3153C133.537 57.1509 132.989 55.8309 132.721 54.3801C132.453 52.9168 132.329 51.4287 132.329 49.897V1.3611H142.291V48.7264C142.291 50.5881 142.677 52.0327 143.437 53.0601C144.203 54.0874 145.448 54.6852 147.167 54.8533L149.334 54.9343V61.3165C148.586 61.5406 147.821 61.7336 147.042 61.9017C146.264 62.0699 145.517 62.1508 144.794 62.1508V62.157Z" fill="white"/>
<path d="M170.143 62.3625C167.141 62.3625 164.302 61.8831 161.619 60.9242C158.935 59.9653 156.687 58.4585 154.869 56.3975C153.051 54.3427 151.905 51.6902 151.432 48.4337H160.355C160.741 50.0153 161.432 51.3104 162.422 52.3067C163.412 53.3091 164.576 54.0376 165.927 54.4922C167.278 54.9529 168.673 55.1833 170.112 55.1833C172.696 55.1833 174.781 54.7412 176.363 53.8508C177.945 52.9604 178.742 51.5844 178.742 49.7226C178.742 48.359 178.306 47.2818 177.434 46.4662C176.556 45.6629 175.136 45.0527 173.156 44.6356L164.987 42.7614C161.32 41.9581 158.387 40.6257 156.189 38.7577C153.997 36.896 152.883 34.2684 152.852 30.8811C152.827 28.3282 153.462 26.0431 154.769 24.0444C156.077 22.0457 158.026 20.4703 160.604 19.3122C163.188 18.1603 166.369 17.5812 170.149 17.5812C175.18 17.5812 179.215 18.702 182.26 20.9373C185.304 23.1727 186.867 26.3607 186.954 30.5075H178.324C178.019 28.6458 177.141 27.195 175.697 26.149C174.252 25.1029 172.378 24.5861 170.068 24.5861C167.758 24.5861 165.722 25.0468 164.19 25.9621C162.665 26.8774 161.899 28.2847 161.899 30.1713C161.899 31.4789 162.478 32.5062 163.63 33.2597C164.782 34.0068 166.538 34.6482 168.904 35.1774L176.656 37.0516C178.878 37.6058 180.697 38.3592 182.116 39.2994C183.53 40.2458 184.638 41.2794 185.429 42.4064C186.226 43.5334 186.78 44.6854 187.098 45.8684C187.415 47.0514 187.577 48.1411 187.577 49.1373C187.577 51.9206 186.861 54.2867 185.429 56.248C183.997 58.2094 181.979 59.71 179.383 60.7747C176.786 61.827 173.71 62.3563 170.149 62.3563V62.375L170.143 62.3625Z" fill="white"/>
<path d="M119.851 11.8839C122.989 11.8839 125.536 9.33729 125.536 6.19912C125.536 3.06094 122.989 0.514282 119.851 0.514282C116.713 0.514282 114.166 3.06094 114.166 6.19912C114.166 9.33729 116.713 11.8839 119.851 11.8839Z" fill="white"/>
</svg>
