<svg xmlns="http://www.w3.org/2000/svg" fill="none" role="img" width="130" height="36" class="text-black" aria-label="panvia">
  <path fill="currentColor" fill-rule="evenodd" d="M19 8a2 2 0 0 1 2 2v4h4a2 2 0 0 1 2 2v10a2 2 0 0 1-2 2H13a2 2 0 0 1-2-2v-4H7a2 2 0 0 1-2-2V10a2 2 0 0 1 2-2zm-6 6a2 2 0 0 0-2 2v4a2 2 0 0 0 2 2h8v-6a2 2 0 0 0-2-2z" clip-rule="evenodd"></path>
  <path fill="currentColor" d="M40.85 10.96h2.8q2.3 0 3.6 1.0 1.3 1.0 1.3 2.8 0 1.2-.5 2.1-.5.9-1.4 1.4-.9.5-2.1.5h-2.0v4.6h-1.7v-12.4zm1.7 1.4v4.2h2.1q.9 0 1.5-.3.6-.3.9-.8.3-.5.3-1.1 0-1.0-.7-1.5-.7-.5-2.0-.5h-2.1zm9.2 10.96q-1.0 0-1.8-.4-.8-.4-1.3-1.1-.5-.7-.5-1.6 0-1.5 1.2-2.4 1.2-.9 3.3-.9h2.1v-.5q0-.8-.3-1.3-.3-.5-.8-.7-.5-.2-1.1-.2-.7 0-1.2.2-.5.2-.8.6-.3.4-.3.9h-1.6q0-.8.4-1.4.4-.6 1.1-1.0.7-.4 1.6-.4 1.3 0 2.2.5.9.5 1.4 1.3.5.8.5 1.8v5.6h-1.5v-1.3h-.1q-.3.7-.9 1.1-.6.4-1.4.4zm.2-1.3q.7 0 1.2-.3.5-.3.8-.8.3-.5.3-1.1v-1.0h-1.9q-1.2 0-1.8.4-.6.4-.6 1.1 0 .6.4 1.0.4.4 1.0.4zm7.8 1.26v-8.3h1.5v1.4h.1q.3-.7.9-1.2.6-.5 1.4-.5h.3v1.6h-.4q-.8 0-1.4.4-.6.4-.9 1.0-.3.6-.3 1.3v4.3h-1.6zm10.2.08q-1.3 0-2.3-.5-1.0-.5-1.5-1.4-.5-.9-.5-2.1v-4.5h1.6v4.4q0 1.2.6 1.9.6.7 1.6.7 1.0 0 1.6-.7.6-.7.6-1.9v-4.4h1.6v8.0h-1.5v-1.3h-.1q-.3.6-.9 1.0-.6.4-1.2.4zm7.9 0q-1.3 0-2.1-.6-.8-.6-1.2-1.5h-.1v1.9h-1.5v-11.2h1.6v3.9h.1q.4-.9 1.2-1.4.8-.5 1.9-.5 1.2 0 2.1.5.9.5 1.4 1.4.5.9.5 2.1 0 1.2-.5 2.1-.5.9-1.4 1.4-.9.5-2.1.5zm-.2-1.4q.8 0 1.4-.4.6-.4.9-1.0.3-.6.3-1.3 0-.7-.3-1.3-.3-.6-.9-1.0-.6-.4-1.4-.4-.8 0-1.4.4-.6.4-.9 1.0-.3.6-.3 1.3 0 .7.3 1.3.3.6.9 1.0.6.4 1.4.4zm6.2 1.32v-8.3h1.6v8.3h-1.6zm.8-9.5q-.3 0-.5-.2-.2-.2-.2-.5 0-.3.2-.5.2-.2.5-.2.3 0 .5.2.2.2.2.5 0 .3-.2.5-.2.2-.5.2zm3.5 9.42q-1.0 0-1.8-.4-.8-.4-1.3-1.1-.5-.7-.5-1.6 0-1.5 1.2-2.4 1.2-.9 3.3-.9h2.1v-.5q0-.8-.3-1.3-.3-.5-.8-.7-.5-.2-1.1-.2-.7 0-1.2.2-.5.2-.8.6-.3.4-.3.9h-1.6q0-.8.4-1.4.4-.6 1.1-1.0.7-.4 1.6-.4 1.3 0 2.2.5.9.5 1.4 1.3.5.8.5 1.8v5.6h-1.5v-1.3h-.1q-.3.7-.9 1.1-.6.4-1.4.4zm.2-1.3q.7 0 1.2-.3.5-.3.8-.8.3-.5.3-1.1v-1.0h-1.9q-1.2 0-1.8.4-.6.4-.6 1.1 0 .6.4 1.0.4.4 1.0.4z"></path>
</svg>
